/* XPM */
static char *_a17a1840aab4ff5a91d8928047ad6df[] = {
/* columns rows colors chars-per-pixel */
"128 128 4 1 ",
"  c #216EA0",
". c #297EAE",
"X c #419FCC",
"o c #F3FFFF",
/* pixels */
"XXXXXXXXXXXXXXXXXXXXXXXXXXXXXXXXXXXXXXXXXXXXXXXXXXXXXXXXXXXXXXXXXXXXXXXXXXXXXXXXXXXXXXXXXXXXXXXXXXXXXXXXXXXXXXXXXXXXXXXXXXXXXXXX",
"XXXXXXXXXXXXXXXXXXXXXXXXXXXXXXXXXXXXXXXXXXXXXXXXXXXXXXXXXXXXXXXXXXXXXXXXXXXXXXXXXXXXXXXXXXXXXXXXXXXXXXXXXXXXXXXXXXXXXXXXXXXXXXXX",
"XXXXXXXXXXXXXXXXXXXXXXXXXXXXXXXXXXXXXXXXXXXXXXXXXXXXXXXXXXXXXXXXXXXXXXXXXXXXXXXXXXXXXXXXXXXXXXXXXXXXXXXXXXXXXXXXXXXXXXXXXXXXXXXX",
"XXXXXXXXXXXXXXXXXXXXXXXXXXXXXXXXXXXXXXXXXXXXXXXXXXXXXXXXXXXXXXXXXXXXXXXXXXXXXXXXXXXXXXXXXXXXXXXXXXXXXXXXXXXXXXXXXXXXXXXXXXXXXXXX",
"XXXXXXXXXXXXXXXXXXXXXXXXXXXXXXXXXXXXXXXXXXXXXXXXXXXXXXXXXXXXXXXXXXXXXXXXXXXXXXXXXXXXXXXXXXXXXXXXXXXXXXXXXXXXXXXXXXXXXXXXXXXXXXXX",
"XXXXXXXXXXXXXXXXXXXXXXXXXXXXXXXXXXXXXXXXXXXXXXXXXXXXXXXXXXXXXXXXXXXXXXXXXXXXXXXXXXXXXXXXXXXXXXXXXXXXXXXXXXXXXXXXXXXXXXXXXXXXXXXX",
"XXXXXXXXXXXXXXXXXXXXXXXXXXXXXXXXXXXXXXXXXXXXXXXXXXXXXXXXXXXXXXXXXXXXXXXXXXXXXXXXXXXXXXXXXXXXXXXXXXXXXXXXXXXXXXXXXXXXXXXXXXXXXXXX",
"XXXXXXXXXXXXXXXXXXXXXXXXXXXXXXXXXXXXXXXXXXXXXXXXXXXXXXXXXXXXXXXXXXXXXXXXXXXXXXXXXXXXXXXXXXXXXXXXXXXXXXXXXXXXXXXXXXXXXXXXXXXXXXXX",
"XXXXXXXXXXXXXXXXXXXXXXXXXXXXXXXXXXXXXXXXXXXXXXXXXXXXXXXXXXXXXXXXXXXXXXXXXXXXXXXXXXXXXXXXXXXXXXXXXXXXXXXXXXXXXXXXXXXXXXXXXXXXXXXX",
"XXXXXXXXXXXXXXXXXXXXXXXXXXXXXXXXXXXXXXXXXXXXXXXXXXXXXXXXXXXXXXXXXXXXXXXXXXXXXXXXXXXXXXXXXXXXXXXXXXXXXXXXXXXXXXXXXXXXXXXXXXXXXXXX",
"XXXXXXXXXXXXXXXXXXXXXXXXXXXXXXXXXXXXXXXXXXXXXXXXXXXXXXXXXXXXXXXXXXXXXXXXXXXXXXXXXXXXXXXXXXXXXXXXXXXXXXXXXXXXXXXXXXXXXXXXXXXXXXXX",
"XXXXXXXXXXXXXXXXXXXXXXXXXXXXXXXXXXXXXXXXXXXXXXXXXXXXXXXXXXXXXXXXXXXXXXXXXXXXXXXXXXXXXXXXXXXXXXXXXXXXXXXXXXXXXXXXXXXXXXXXXXXXXXXX",
"XXXXXXXXXXXXXXXXXXXXXXXXXXXXXXXXXXXXXXXXXXXXXXXXXXXXXXXXXXXXXXXXXXXXXXXXXXXXXXXXXXXXXXXXXXXXXXXXXXXXXXXXXXXXXXXXXXXXXXXXXXXXXXXX",
"XXXXXXXXXXXXXXXXXXXXXXXXXXXXXXXXXXXXXXXXXXXXXXXXXXXXXXXXXXXXXXXXXXXXXXXXXXXXXXXXXXXXXXXXXXXXXXXXXXXXXXXXXXXXXXXXXXXXXXXXXXXXXXXX",
"XXXXXXXXXXXXXXXXXXXXXXXXXXXXXXXXXXXXXXXXXXXXXXXXXXXXXXXXXXXXXXXXXXXXXXXXXXXXXXXXXXXXXXXXXXXXXXXXXXXXXXXXXXXXXXXXXXXXXXXXXXXXXXXX",
"XXXXXXXXXXXXXXXXXXXXXXXXXXXXXXXXXXXXXXXXXXXXXXXXXXXXXXXXXXXXXXXXXXXXXXXXXXXXXXXXXXXXXXXXXXXXXXXXXXXXXXXXXXXXXXXXXXXXXXXXXXXXXXXX",
"XXXXXXXXXXXXXXXXXXXXXXXXXXXXXXXXXXXXXXXXXXXXXXXXXXXXXXXXXXXXXXXXXXXXXXXXXXXXXXXXXXXXXXXXXXXXXXXXXXXXXXXXXXXXXXXXXXXXXXXXXXXXXXXX",
"XXXXXXXXXXXXXXXXXXXXXXXXXXXXXXXXXXXXXXXXXXXXXXXXXXXXXXXXXXXXXXXXXXXXXXXXXXXXXXXXXXXXXXXXXXXXXXXXXXXXXXXXXXXXXXXXXXXXXXXXXXXXXXXX",
"XXXXXXXXXXXXXXXXXXXXXXXXXXXXXXXXXXXXXXXXXXXXXXXXXXXXXXXXXXXXXXXXXXXXXXXXXXXXXXXXXXXXXXXXXXXXXXXXXXXXXXXXXXXXXXXXXXXXXXXXXXXXXXXX",
"XXXXXXXXXXXXXXXXXXXXXXXXXXXXXXXXXXXXXXXXXXXXXXXXXXXXXXXXXXXXXXXXXXXXXXXXXXXXXXXXXXXXXXXXXXXXXXXXXXXXXXXXXXXXXXXXXXXXXXXXXXXXXXXX",
"XXXXXXXXXXXXXXXXXXXXXXXXXXXXXXXXXXXXXXXXXXXXXXXXXXXXXXXXXXXXXXXXXXXXXXXXXXXXXXXXXXXXXXXXXXXXXXXXXXXXXXXXXXXXXXXXXXXXXXXXXXXXXXXX",
"XXXXXXXXXXXXXXXXXXXXXXXXXXXXXXXXXXXXXXXXXXXXXXXXXXXXXXXXXXXXXXXXXXXXXXXXXXXXXXXXXXXXXXXXXXXXXXXXXXXXXXXXXXXXXXXXXXXXXXXXXXXXXXXX",
"XXXXXXXXXXXXXXXXXXXXXXXXXXXXXXXXXXXXXXXXXXXXXXXXXXXXXXXXXXXXXXXXXXXXXXXXXXXXoXXXXXXXXXXXXXXXXXXXXXXXXXXXXXXXXXXXXXXXXXXXXXXXXXXX",
"XXXXXXXXXXXXXXXXXXXXXXXXXXXXXXXXXXXXXXXXXXXXXXXXXXXXXXXXXXXXXXXXXXXXXXXXXXXXoXXXXXXXXXXXXXXXXXXXXXXXXXXXXXXXoXXXXXXXXXXXXXXXXXXX",
"XXXXXXXXXXXXXXXXXXXXXXXXXXXXXXXXXXXXXXXXXXXXXXXXXXXXXXXXXXXXXXXXXXXXXXXXXXXXoXXXXXXXXXXXXXXXXXXXXXXXXXXXXXXXoXXXXXXXXXXXXXXXXXXX",
"XXXXXXXXXXXXXXXXXXXXXXXXXXXXXXXXXXXXXXXXXXXXXXXXXXXXXXXXXXXXXXXXXXXXXXXXXXXXoXXXXXXXXXXXXXXXXXXXXXXXXXXXXXXXoXXXXXXXXXXXXXXXXXXX",
"XXXXXXXXXXXXXXXXXoXXXXXoXXXXXXXXXXXXXXXXXXXXoXXXXXXXXXXXXXXXXXXXXXXXXXXXXXXXoXXXXoXXXXXXXXXXXXXXXXXXXXXXXXXXXXXXXoXXXXXoXXXXXXXX",
"XXXXXXXXXXXXoXXXXooXXXXoXXXXXXXXXXXXXXXXXXXXoXXXXXXXXXXXXXXXXXXXXXXXXXXXXXXXoXXXXooXXXXXXXXXXXXXXXXXXXXXXXXXoXoXoooXXXXoXXXXXXXX",
"XXXXXXXXXXXoooXXoooooXXooXXXXXXXXXXXXXXXXXXXooXXXXXXXXXXXXXXXXXXXXXXXXXXXXXoXoXXoooooXooXXXXXXoXXXXXXXXXXXXooooXoXXooXXooXXXXXXX",
"XXXXXXXXXXXoooXXoooooXXooXXXXXXXXXXXXXXXXXXXooXXXXXXXXXXXXXXXXXXXXXXXXXXXXXoXoXXoooooXooXXXXXXoXXXXXXXXXXXXooooXoXXooXXooXXXXXXX",
"XXXXXXXXXXXXoXooXXooXXXooXXXXoXXXXXXXXXXXXXXXoXXXXXXXXXXXXXXoXXoXXXXXXXXXXXXooooXXooXoXooXXXooXXXXXXXXXXXXXXXXooXXXooXoooXXXXoXX",
"oXXXXXXXXXoX.XXX..XXooXXoooXoX.XXXXXXXXXXXXXooooXXXXXXXXXXXXoX.ooXXXXXXXXXXo.ooX..XXooXXoooooX.XXXXXXXXXXXoX.XXX..XXooXXoooXoX.X",
"ooooXXXXXoXX.XXXX....XXXXoooXX.XXXXXXXXXXXoooXXXXoXXXXXXXXXXooXooooXXXXXXXoo.XooX....XXXXoooXX.oXXXXXXXXXoXX.XXXX....XXXXoooXX. ",
"ooooXXXXXoXX.XXXX....XXXXoooXX.XXXXXXXXXXXoooXXXXoXXXXXXXXXXooXooooXXXXXXXoo.XooX....XXXXoooXX.oXXXXXXXXXoXX.XXXX....XXXXoooXX. ",
"oooXoooooXXX..XX....XXX.XXXXX. oXXXXXXXXXooXoXXXXoooXXXooXXooooXoooooXXXXooX..XX....XXX.XXXXX. ooXXXXXXXooXX..XX....XXX.XXXXX.  ",
"XXXXXoooXXX.. ... .XXXXX.XXX.. XoooXXXXXoooXXXXX.XXooooXoooXXXXXXoXoooXoooX.. ... .XXXXX.XXX.XXXooXXXXXooXX.. ... .XXXXX.XXX..  ",
"XXXXXXXXXXX.  ... .XXXX....... XXXoooXoXoXXX  ... .oooXXXXXXX. XXXXXoooXXXX. X..X .XXXXXX...XXXXXXXooXoXXXX.  ... .XXXXX......  ",
"XXXXXXXXXXX.  ... .XXXX....... XXXoooXoXoXXX  ... .oooXXXXXXX. XXXXXoooXXXX. X..X .XXXXXX...XXXXXXXooXoXXXX.  ... .XXXXX...... X",
"XXX.XXXXXX..  ... ..XX........ XXXXXooXoXXXX  ... .XoXX..XXX.. XXXX.XooXXX.X  XXX XXXXXXXXXXXX XXXX.XoooXX..  ... .XXXX....... X",
"XX..XXXXX...  ... ...... ....  .XXXXXXXXXXX.  ... .XXXX. ....  .XX..XXoooXXX  XX. XoXXXXXXXX.  XXX..XXXXX...  ... .XXXX. .... XX",
"... .XXX.... .... ...... ....  .... .XXXX... .... ..XX.. ....  .... .XXXXXXX .... XooXXX ....  XXXX .XXX.... .... ..XX.. ....XXX",
"... .XXX.... .... ...... ....  .... .XXXX... .... ..XX.. ....  .... XXXXXXXX .... XooXXX ....  XXXX .XXX.... .... ..XX.. ....XXX",
"... .XXX.... .. . ...... .... ..... XX...... .. . ...... .... ....XXXXXXXXXXX.. . XXXXX. .... .XXXXX........ .. . ...... ..XXXXX",
".XXX.XX... .........  ...........XXXX......  ........ ...........XXX........XXXXXXXX.....XXX.  ..XXXX..........................X",
".XXX.XX... .........  ...........XXX.......  ....................XXX..........XXXX...........  ..XXXXX....XX.................. X",
".XXX.XX... .........  ...........XXX.......  ....................XXX..........XXXX...........  ..XXXXX....XX.................. X",
".XXX.XX... .........  ...........XXX.X...... ... .... ...........XXX....... ................. ...XXXXXXXXXXXXX......XXX......XXX",
".XXX.XX... .........  ...........XXX.X...... ... .... ...........XXX....... ......... ....... ...XXXXXXXXXX.XXX....XXXXXXXXXXXXX",
".XXX.XX... .........  ...........XXX.X...... ... .... ...........XXX....... ......... ....... ...XXXXXXXXXX.XXX....XXXXXXXXXXXXX",
".XXX..X............. ............XXX.X...... ... .... ...........XXX....... ................. ...XXX.XXXXX..XXXXXXXXXXXXXXXXXXXX",
".XXX..X... ......... ............XXX.XX..... ........ ...........XXX....... ......... ....... ...XXX..XXX...XXXXXXXXX.XXXXXXXXXX",
".XXX...... ......... ............XXX.XX.............. ...........XXX.......  ........ ...........XXX.........XXXXXXXX..XXXXXXXX.",
".XXX...... ......... ............XXX.XX.............. ...........XXX.......  ........ ...........XXX.........XXXXXXXX..XXXXXXXX.",
".XXX................ ............XXX.XX.............  ...........XXX.......  ........ ...........XXX.........XXXXXXX....XXXXXX .",
".XXXX............................XXX.XX... .........  ...........XXX.......  ........ ...........XXX.........XXXXXX......XXX.  .",
".XXXXX....XX.................. X.XXX.XX... .........  ...........XXX.......  ....................XXX..........XXXX...........  .",
".XXXXX....XX.................. X.XXX.XX... .........  ...........XXX.......  ....................XXX..........XXXX...........  .",
".XXXXXXXXXXXXX......XXX......XXX.XXX.XX... .........  ...........XXX.X...... ... .... ...........XXX....... ................. ..",
".XXXXXXXXXX.XXX....XXXXXXXXXXXXX.XXX.XX... .........  ...........XXX.X...... ... .... ...........XXX....... ......... ....... ..",
".XXX.XXXXX..XXXXXXXXXXXXXXXXXXXX.XXX..X............. ............XXX.X...... ... .... ...........XXX....... ................. ..",
".XXX.XXXXX..XXXXXXXXXXXXXXXXXXXX.XXX..X............. ............XXX.X...... ... .... ...........XXX....... ................. ..",
".XXX..XXX...XXXXXXXXX.XXXXXXXXXX.XXX..X... ......... ............XXX.XX..... ........ ...........XXX....... ......... ....... ..",
".XXX.........XXXXXXXX..XXXXXXXX..XXX...... ......... ............XXX.XX.............. ...........XXX.......  ........ ..........",
".XXX.........XXXXXXX....XXXXXX ..XXX................ ............XXX.XX.............  ...........XXX.......  ........ ..........",
".XXX.........XXXXXXX....XXXXXX ..XXX................ ............XXX.XX.............  ...........XXX.......  ........ ..........",
".XXX.........XXXXXX......XXX.  ..XXXX............................XXX.XX... .........  ...........XXX.......  ........ ..........",
".XXX..........XXXX...........  ..XXXXX....XX.................. X.XXX.XX... .........  ...........XXX.......  ...................",
".XXX....... ................. ...XXXXXXXXXXXXX......XXX......XXX.XXX.XX... .........  ...........XXX.X...... ... .... ..........",
".XXX....... ................. ...XXXXXXXXXXXXX......XXX......XXX.XXX.XX... .........  ...........XXX.X...... ... .... ..........",
".XXX....... ......... ....... ...XXXXXXXXXX.XXX....XXXXXXXXXXXXX.XXX.XX... .........  ...........XXX.X...... ... .... ..........",
".XXX....... ................. ...XXX.XXXXX..XXXXXXXXXXXXXXXXXXXX.XXX..X............. ............XXX.X...... ... .... ..........",
".XXX....... ......... ....... ...XXX..XXX...XXXXXXXXX.XXXXXXXXXX.XXX..X... ......... ............XXX.XX..... ........ ..........",
".XXX....... ......... ....... ...XXX..XXX...XXXXXXXXX.XXXXXXXXXX.XXX..X... ......... ............XXX.XX..... ........ ..........",
".XXX.......  ........ ...........XXX.........XXXXXXXX..XXXXXXXX..XXX...... ......... ............XXX.XX.............. ..........",
".XXX.......  ........ ...........XXX.........XXXXXXX....XXXXXX ..XXX................ ............XXX.XX.............  ..........",
".XXX.......  ........ ...........XXX.........XXXXXX......XXX.  ..XXXX............................XXX.XX... .........  ..........",
".XXX.......  ........ ...........XXX.........XXXXXX......XXX.  ..XXXX............................XXX.XX... .........  ..........",
".XXX.......  ....................XXX..........XXXX...........  ..XXXXX....XX.................. X.XXX.XX... .........  ..........",
".XXX.X...... ... .... ...........XXX....... ................. ...XXXXXXXXXXXXX......XXX......XXX.XXX.XX... .........  ..........",
".XXX.X...... ... .... ...........XXX....... ......... ....... ...XXXXXXXXXX.XXX....XXXXXXXXXXXXX.XXX.XX... .........  ..........",
".XXX.X...... ... .... ...........XXX....... ......... ....... ...XXXXXXXXXX.XXX....XXXXXXXXXXXXX.XXX.XX... .........  ..........",
".XXX.X...... ... .... ...........XXX....... ................. ...XXX.XXXXX..XXXXXXXXXXXXXXXXXXXX.XXX..X............. ...........",
".XXX.XX..... ........ ...........XXX....... ......... ....... ...XXX..XXX...XXXXXXXXX.XXXXXXXXXX.XXX..X... ......... ...........",
".XXX.XX..... ........ ...........XXX....... ......... ....... ...XXX..XXX...XXXXXXXXX.XXXXXXXXXX.XXX..X... ......... ...........",
".XXX.XX.............. ...........XXX.......  ........ ...........XXX.........XXXXXXXX..XXXXXXXX..XXX...... ......... ...........",
".XXX.XX.............  ...........XXX.......  ........ ...........XXX.........XXXXXXX....XXXXXX ..XXX................ ...........",
".XXX.XX... .........  ...........XXX.......  ........ ...........XXX.........XXXXXX......XXX.  ..XXXX...........................",
".XXX.XX... .........  ...........XXX.......  ........ ...........XXX.........XXXXXX......XXX.  ..XXXX...........................",
".XXX.XX... .........  ...........XXX.......  ....................XXX..........XXXX...........  ..XXXXX....XX.................. X",
".XXX.XX... .........  ...........XXX.X...... ... .... ...........XXX....... ................. ...XXXXXXXXXXXXX......XXX......XXX",
".XXX.XX... .........  ...........XXX.X...... ... .... ...........XXX....... ......... ....... ...XXXXXXXXXX.XXX....XXXXXXXXXXXXX",
".XXX.XX... .........  ...........XXX.X...... ... .... ...........XXX....... ......... ....... ...XXXXXXXXXX.XXX....XXXXXXXXXXXXX",
".XXX..X............. ............XXX.X...... ... .... ...........XXX....... ................. ...XXX.XXXXX..XXXXXXXXXXXXXXXXXXXX",
".XXX..X... ......... ............XXX.XX..... ........ ...........XXX....... ......... ....... ...XXX..XXX...XXXXXXXXX.XXXXXXXXXX",
".XXX...... ......... ....o.......XXX.XX.............. ...........XXX.......  ........ ...........XXX.........XXXXXXXX..XXXXXXXX.",
".XXX...... ......... ....o.......XXX.XX.............. ...........XXX.......  ........ ...........XXX.........XXXXXXXX..XXXXXXXX.",
".XXX................ ............XXX.XX.............  ...........XXX.......  ........ ...........XXX.........XXoXXXX....oXXXXX .",
".XXXX............................XXX.XX... .........  ...........XXX.......  ...o.... ...........XXX.........XXXXXX......XXX.  .",
".XXXXX....XX.................. X.XXX.XX... .........  ...........XXX.......  ....................XXX..........XXXX...........  .",
".XXXXX....XX.................. X.XXX.XX... .........  ...........XXX.......  ....................XXX..........XXXX...........  .",
".XXXXXXXXXXXXX......XXX......XXX.XXX.XX... .........  ...........XXX.X...... ... .... ..o........XXX....... ................. ..",
".XXXXXXXXXX.XXX....XXXXXXXXXXXXX.XXX.XX... .....o...  ...........XXX.X...... ... .... ...........XXX....... ......... ....... ..",
".XXX.XXXXo..XooooXXXXXXXXXXXXXoo.XXXoooo............ ............XXX.X...... ... ....oooo........XXX....... ................. ..",
".XXX.XXXXo..XooooXXXXXXXXXXXXXoo.XXXoooo............ ............XXX.X...... ... ....oooo........XXX....... ................. ..",
".XXXooooX...ooooooXXX.XXXXXXXooo.XXoooooo. ......... oooo.....oo.XXX.XX..... .......oooooo.......XXX....... ......... ....... ..",
".XXoooooo..ooooooooXXooooXXXoooo.Xoooooooo ..oooo...oooooo...ooo.XXoooo............oooooooo...oo.XXX.....o.  ........oooo.......",
".XooooooooooooooooooooooooXooooo.oooooooooo.oooooo.oooooooo.oooo.Xoooooo..o.......oooooooooo.ooo.XXX.......  oooo...oooooo......",
".XooooooooooooooooooooooooXooooo.oooooooooo.oooooo.oooooooo.oooo.Xoooooo..o.......oooooooooo.ooo.XXX.......  oooo...oooooo......",
".ooooooooooooooooooooooooooooooo.ooooooooooooooooooooooooooooooo.oooooooo. ..oooo.oooooooooooooo.XXooo..... oooooo.oooooooo...oo",
".ooooooooooooooooooooooooooooooo.ooooooooooooooooooooooooooooooo.oooooooo. .oooooooooooooooooooo.Xooooo....oooooooooooooooo..ooo",
".ooooooooooooooooooooooooooooooo.ooooooooooooooooooooooooooooooo.oooooooo. ooooooooooooooooooooo.ooooooo.o.ooooooooooooooooooooo",
".ooooooooooooooooooooooooooooooo.ooooooooooooooooooooooooooooooo.oooooooo. ooooooooooooooooooooo.ooooooo.o.ooooooooooooooooooooo",
".ooooooooooooooooooooooooooooooo.ooooooooooooooooooooooooooooooo.ooooooooo ooooooooooooooooooooo.ooooooooooooooooooooooooooooooo",
".ooooooooooooooooooooooooooooooo.ooooooooooooooooooooooooooooooo.ooooooooooooooooooooooooooooooo.ooooooooooooooooooooooooooooooo",
".ooooooooooooooooooooooooooooooo.ooooooooooooooooooooooooooooooo.ooooooooooooooooooooooooooooooo.ooooooooooooooooooooooooooooooo",
"..oooooooooooooooooooooooooooooo.ooooooooooooooooooooooooooooooo.ooooooooooooooooooooooooooooooo..oooooooooooooooooooooooooooooo",
"X..ooooooooooooooooooooooooooooo.ooooooooooooooooooooooooooooooo.oooooooooooooooooooooooooooooooX..ooooooooooooooooooooooooooo.o",
"XX...oooo...oo.ooooooooooooooooo..oooooooooooooooooooooooooooooo..ooooooooooooooooooooooooooooooXXoooooooo....ooooooooooo....XXX",
"XX...oooo...oo.ooooooooooooooooo..oooooooooooooooooooooooooooooo..ooooooooooooooooooooooooooooooXXoooooooo....ooooooooooo....XXX",
"XXXX..oo..XX...oooooooooo.oo...X...ooooooooooooooooooooooooooooo..ooooooooooooooooooooooooo....oXX.oooo......XX..ooooo.....XXXXX",
"XXXXXX...XXXXXX.ooooo....X...XXXX...o..ooooo.ooooooooo...oooooooX.ooooooooooooooooooooooo...XXX.XXX......XXXXXXXXX......XXXXXXXX",
"XXXXXXXXXXXXXXXX..o..XXooXXXXXXXXXX..ooo......oooooo......ooooooXXXo...oooooooo....oo......XXXXXXXXXXXXXXXoXXXXXXXXXXoXXXXXXXXXX",
"XXXXXXXXXXXXXXXX..o..XXooXXXXXXXXXX..ooo......oooooo......ooooooXXXo...oooooooo....oo......XXXXXXXXXXXXXXXoXXXXXXXXXXoXXXXXXXXXX",
"XXXXXXXXXXXXXXXXXX.oooXXXXXXXXXXXXXXXXXXXXXXXX.oo.....XXXX......XXX.oXX.oo......XXXXXXXXXXXXoooXXXXXXXXXXXXoooXooXXXXXXXXXXXXXXX",
"XXXXXXXXooXXXXXXXXX..XXXXXXXXXXXXXXXXXXXXXXXXXXXXXXXXXXXoooXXXXXXXXXXooXoo..XXXXXXXXXXXXXXXXXXXXXXXXXXXXXXXXXXXXXXXXXXXXXXXoooXo",
"XXXXXXXXXXoooXooXoXXXXXXXXoXXXXXXXXXXXXXXXXXXXXXXXXooooXXXXXXXXXXXXXXXXXXXXXXXXXXXXXXXXXXXXXXXXXXXXXXXXXXXoXXXXXXXXXXXXXXXXXXXXX",
"XXXXXXXXXXoooXooXoXXXXXXXXoXXXXXXXXXXXXXXXXXXXXXXXXooooXXXXXXXXXXXXXXXXXXXXXXXXXXXXXXXXXXXXXXXXXXXXXXXXXXXoXXXXXXXXXXXXXXXXXXXXX",
"XXXXXXXXXXXXXXXXXXXXXXXXXXXooXoXXXXXXXXXXXXXXXXXXXXXXXXXXXXXXXXXXXXXXXXXXXXXXXXXXXXXXXXXXooXoXXXXXXXoXXXooXXXXXXXXXXXXXXXXXXXXXX"
};
